<?xml version="1.0" standalone="no"?>
<!DOCTYPE svg PUBLIC "-//W3C//DTD SVG 20010904//EN"
 "http://www.w3.org/TR/2001/REC-SVG-20010904/DTD/svg10.dtd">
<svg version="1.0" xmlns="http://www.w3.org/2000/svg"
 width="1024.000000pt" height="1024.000000pt" viewBox="0 0 1024.000000 1024.000000"
 preserveAspectRatio="xMidYMid meet">

<g transform="translate(0.000000,1024.000000) scale(0.100000,-0.100000)"
fill="#000000" stroke="none">
<path d="M6081 7835 c-220 -48 -419 -193 -506 -367 -116 -235 -68 -488 129
-681 l69 -67 -18 -65 c-9 -36 -32 -89 -50 -119 -28 -48 -31 -57 -18 -67 20
-17 126 18 254 83 l98 50 58 -13 c93 -20 284 -15 378 10 265 69 460 251 520
486 29 114 10 267 -48 382 -91 178 -277 315 -492 363 -107 23 -277 25 -374 5z
m384 -59 c33 -9 102 -37 154 -62 228 -112 367 -351 332 -574 -27 -173 -152
-339 -323 -426 -26 -13 -82 -36 -125 -50 -104 -36 -281 -44 -401 -20 l-82 17
-39 -26 c-40 -27 -193 -97 -198 -91 -2 2 6 25 18 52 12 27 23 71 25 98 l4 48
-84 83 c-143 140 -194 277 -173 460 26 230 240 436 519 500 80 18 289 13 373
-9z"/>
<path d="M5849 7307 c-58 -39 -74 -98 -44 -161 17 -35 69 -66 111 -66 59 0
124 63 124 120 0 63 -67 130 -131 130 -14 0 -41 -10 -60 -23z m122 -46 c36
-36 37 -70 3 -110 -51 -61 -144 -26 -144 54 0 79 84 112 141 56z"/>
<path d="M6200 7312 c-115 -57 -68 -232 62 -232 131 0 163 185 42 236 -44 18
-62 18 -104 -4z m99 -37 c33 -16 41 -33 41 -80 0 -42 -38 -75 -85 -75 -25 0
-40 8 -59 31 -34 40 -33 74 3 110 33 32 58 36 100 14z"/>
<path d="M6575 7323 c-53 -14 -95 -66 -95 -120 0 -61 66 -123 131 -123 35 0
84 28 102 59 36 62 8 149 -58 177 -35 14 -46 15 -80 7z m84 -59 c24 -20 31
-34 31 -60 0 -79 -93 -114 -144 -53 -34 40 -33 74 3 110 36 36 70 37 110 3z"/>
<path d="M5866 6595 c-11 -8 -16 -15 -10 -15 5 0 18 7 28 15 11 8 16 15 10 15
-5 0 -18 -7 -28 -15z"/>
<path d="M4225 6795 c-125 -44 -165 -216 -74 -319 l29 -34 -44 -185 c-24 -103
-47 -191 -51 -196 -3 -6 -38 -35 -78 -65 -207 -157 -368 -390 -448 -649 l-31
-98 -61 3 -62 3 -16 200 c-34 411 -100 728 -185 897 -14 28 -46 73 -71 99 -70
75 -103 82 -386 77 l-232 -3 -66 -32 c-125 -62 -209 -182 -270 -387 l-27 -91
-138 -6 c-153 -6 -186 -15 -248 -69 -80 -71 -127 -168 -172 -355 l-27 -115
-45 0 c-97 0 -175 -67 -207 -177 -56 -193 -61 -619 -10 -867 30 -144 95 -212
212 -223 l58 -5 28 -117 c30 -124 77 -234 125 -291 17 -20 54 -49 83 -65 51
-28 62 -30 203 -35 l148 -5 27 -80 c72 -214 179 -327 337 -356 34 -6 148 -9
278 -7 247 4 265 8 331 74 44 44 104 167 134 274 48 175 98 480 116 720 3 41
8 90 11 108 l5 33 65 -3 66 -3 33 -97 c86 -255 246 -434 500 -561 258 -129
546 -184 1010 -194 461 -9 805 47 1080 176 277 130 449 319 550 604 l28 78 51
-3 51 -3 17 -170 c61 -626 156 -928 315 -1007 47 -22 56 -23 303 -23 246 0
257 1 315 24 113 46 201 159 264 341 l26 75 145 5 c168 6 210 20 279 95 63 69
114 189 151 358 13 56 14 57 49 57 102 0 186 63 215 160 39 130 50 238 50 490
1 277 -14 389 -64 497 -37 79 -83 112 -169 120 -56 5 -62 8 -67 32 -61 286
-133 424 -252 482 -40 19 -69 24 -186 29 l-139 5 -32 100 c-65 206 -144 319
-264 378 l-66 32 -260 0 c-249 0 -262 -1 -302 -22 -162 -87 -265 -430 -318
-1062 -8 -95 -17 -176 -20 -179 -3 -3 -24 -6 -46 -6 l-42 -1 -36 110 c-174
519 -584 835 -1206 930 -258 40 -725 24 -896 -30 -19 -6 -67 57 -123 161 l-28
51 21 41 c50 99 8 221 -93 268 -58 27 -94 29 -151 9z m137 -56 c60 -32 99
-151 63 -194 -9 -11 -14 -14 -10 -7 13 26 -7 33 -32 10 -20 -19 -36 -23 -85
-23 -56 0 -61 2 -95 39 l-36 39 5 -31 c5 -38 -8 -32 -17 7 -14 64 31 144 95
170 26 11 82 6 112 -10z m-1369 -265 c45 -8 47 -16 8 -31 -170 -64 -310 -802
-311 -1638 0 -165 -4 -245 -10 -235 -8 13 -10 12 -10 -4 0 -15 -3 -17 -11 -9
-6 6 -18 9 -25 6 -10 -3 -12 0 -8 10 9 26 -16 30 -37 6 -10 -12 -19 -19 -19
-16 0 4 -9 -2 -21 -14 -11 -11 -27 -18 -35 -15 -9 3 -12 1 -9 -4 3 -6 3 -10
-2 -11 -4 0 -17 -3 -28 -6 -53 -14 -108 -14 -158 1 -63 18 -147 81 -171 128
-17 32 -17 31 -11 -77 7 -117 36 -378 61 -535 35 -222 99 -437 145 -494 51
-61 77 -70 229 -74 165 -5 190 2 190 54 0 20 -7 61 -16 91 -9 30 -13 66 -10
81 5 20 4 23 -4 12 -8 -12 -10 -11 -10 8 0 14 4 21 10 17 7 -4 9 2 4 19 -5 19
-2 26 9 26 8 0 18 -6 20 -12 3 -7 6 -1 6 15 1 15 -4 35 -10 46 -8 12 -9 23 -2
36 9 15 12 9 19 -36 4 -30 8 -56 9 -59 34 -131 76 -251 111 -320 37 -71 56
-97 94 -123 15 -11 19 -17 10 -17 -8 -1 -121 0 -250 0 -226 1 -237 2 -287 25
-144 66 -229 240 -297 612 -57 311 -79 566 -79 933 -1 701 110 1301 276 1495
58 67 127 98 232 106 127 8 353 10 398 3z m4780 -32 c77 -38 128 -95 176 -195
77 -162 144 -472 183 -842 21 -196 17 -933 -5 -1120 -62 -517 -145 -790 -277
-908 -76 -69 -109 -76 -360 -77 -118 -1 -228 -1 -244 -1 l-29 1 34 23 c43 29
113 143 141 229 19 59 23 65 35 50 11 -14 11 -12 2 16 -12 35 3 68 24 55 6 -3
7 -1 3 6 -4 6 -11 9 -15 7 -4 -3 -5 8 -3 25 5 32 6 34 43 43 40 9 42 -20 11
-147 l-27 -109 25 -20 c23 -19 34 -20 168 -14 192 8 226 25 272 129 84 189
148 552 174 987 l5 85 -22 -30 c-26 -35 -63 -71 -95 -92 -32 -22 -128 -40
-184 -35 -38 3 -46 7 -40 20 5 15 3 15 -10 4 -14 -11 -23 -10 -57 10 -23 13
-39 28 -37 34 3 6 -3 11 -11 10 -9 0 -35 23 -58 53 l-42 55 -6 245 c-11 426
-37 696 -98 1005 -53 271 -138 472 -209 499 -34 13 -38 23 -12 31 9 2 121 4
247 3 l231 -2 67 -33z m-3310 -95 c26 -45 47 -86 46 -92 -1 -5 -45 -24 -99
-41 -68 -22 -97 -27 -93 -18 3 8 -2 16 -10 19 -11 5 -13 15 -6 51 11 56 23 80
54 100 29 19 34 46 8 38 -10 -3 -7 2 7 10 14 8 30 15 35 15 6 1 31 -36 58 -82z
m-223 -39 c-19 -137 -29 -173 -51 -187 -12 -7 -23 -10 -26 -7 -3 2 7 56 22
118 36 156 45 182 57 170 7 -7 7 -37 -2 -94z m1240 -63 c527 -77 896 -320
1099 -723 101 -200 135 -363 135 -647 1 -299 -39 -484 -144 -670 -52 -91 -166
-217 -256 -281 -277 -198 -744 -299 -1294 -280 -815 27 -1250 257 -1409 743
-85 261 -88 645 -6 926 95 330 307 591 615 760 170 92 446 166 720 191 91 8
438 -4 540 -19z m-3350 -300 c0 -9 -7 -26 -15 -39 -28 -42 -73 -181 -99 -302
-33 -157 -55 -362 -66 -619 -8 -196 -21 -282 -40 -270 -4 3 -10 -4 -13 -15
-14 -54 -133 -78 -206 -41 -46 24 -61 41 -72 84 -13 50 0 -222 17 -348 16
-116 48 -287 66 -345 6 -19 23 -63 39 -97 35 -74 55 -83 175 -83 112 0 118 6
93 101 -21 80 -24 124 -9 114 6 -3 10 0 11 7 0 7 13 -33 28 -89 33 -119 67
-207 87 -224 8 -6 14 -18 14 -26 0 -13 -19 -15 -129 -11 -122 3 -131 5 -177
34 -122 74 -188 262 -240 679 -22 175 -25 587 -6 755 44 382 110 604 205 685
56 48 112 63 235 64 85 1 102 -2 102 -14z m6271 -17 c105 -62 171 -212 218
-493 35 -206 44 -332 43 -585 0 -327 -36 -625 -98 -822 -47 -149 -87 -210
-166 -254 -49 -27 -62 -29 -180 -32 l-128 -4 34 65 c19 36 45 97 57 136 16 48
27 70 36 67 7 -3 13 2 13 10 0 8 -4 12 -10 9 -5 -3 -10 1 -10 10 0 10 5 13 11
9 9 -5 10 2 6 22 -3 16 -4 23 -1 16 3 -6 10 -10 15 -6 13 8 11 -9 -12 -99 -20
-77 -20 -82 -3 -94 22 -16 143 -17 196 -3 29 8 44 21 64 55 56 96 115 378 129
620 3 55 8 116 11 135 l6 35 -36 -37 c-53 -54 -126 -71 -189 -44 -34 15 -97
77 -97 96 0 6 -4 9 -8 6 -5 -3 -12 90 -15 207 -8 255 -28 452 -67 649 -30 148
-50 212 -95 296 -14 26 -25 51 -25 55 0 5 57 7 128 6 117 -4 131 -6 173 -31z
m-6849 -514 c3 -3 2 -20 -2 -37 -5 -18 -16 -108 -25 -202 -8 -93 -22 -197 -31
-230 -9 -33 -17 -70 -19 -83 -3 -28 -33 -62 -55 -62 -10 0 -29 9 -44 21 l-26
20 0 -98 c0 -119 14 -236 40 -334 24 -94 50 -119 121 -119 37 0 49 -4 49 -15
0 -22 -77 -20 -116 4 -57 35 -90 140 -115 366 -14 136 -6 418 16 532 28 148
56 200 120 229 31 14 77 18 87 8z m7249 -25 c58 -41 88 -139 109 -348 13 -132
13 -246 -1 -391 -20 -226 -53 -332 -113 -370 -40 -24 -116 -28 -116 -5 0 11
12 15 44 15 72 0 100 31 125 140 23 96 40 246 41 348 l0 62 -20 -20 c-25 -25
-64 -26 -88 -2 -14 14 -21 47 -31 138 -7 65 -16 128 -21 139 -5 11 -16 79 -25
150 -8 72 -18 141 -22 154 -6 24 -5 24 41 18 26 -4 61 -16 77 -28z m-5702
-128 c12 -8 12 -12 -3 -26 -43 -44 -70 -145 -81 -310 -12 -170 24 -383 75
-448 18 -22 18 -26 3 -31 -60 -24 -113 167 -113 410 0 189 30 345 77 396 18
20 22 21 42 9z m4092 -21 c52 -71 85 -375 60 -550 -23 -156 -67 -259 -105
-244 -11 4 -8 17 15 62 47 93 62 198 57 391 -5 178 -25 269 -69 325 -21 27
-18 49 8 44 9 -2 24 -14 34 -28z m-3676 -57 c-3 -10 -9 -31 -11 -48 -13 -75
-11 -73 -72 -86 -86 -18 -238 -15 -291 7 l-43 17 6 44 c12 87 1 83 222 83 183
0 196 -1 189 -17z m3601 -19 c29 -69 29 -89 -3 -104 -38 -18 -216 -25 -285
-11 l-55 12 -7 44 c-3 25 -8 56 -12 70 l-6 25 176 0 177 0 15 -36z m-5169
-546 c-2 -13 -4 -5 -4 17 -1 22 1 32 4 23 2 -10 2 -28 0 -40z m1544 -20 c8
-12 21 -89 17 -93 -2 -1 -86 0 -188 4 l-184 6 -14 37 c-27 71 -25 72 180 64
113 -4 185 -11 189 -18z m3636 -5 c-3 -16 -10 -40 -15 -54 l-10 -26 -173 -6
c-95 -3 -175 -5 -177 -3 -8 9 11 75 21 69 6 -4 8 2 4 17 -5 21 -3 22 30 17 20
-4 39 -10 42 -15 9 -13 41 -22 41 -12 0 6 -7 10 -15 10 -8 0 -15 4 -15 9 0 13
42 17 169 19 l104 2 -6 -27z m-4477 -43 c0 -5 -5 -10 -11 -10 -5 0 -7 5 -4 10
3 6 8 10 11 10 2 0 4 -4 4 -10z m5657 -42 c-2 -13 -4 -5 -4 17 -1 22 1 32 4
23 2 -10 2 -28 0 -40z m-6350 -40 c-3 -7 -5 -2 -5 12 0 14 2 19 5 13 2 -7 2
-19 0 -25z m6340 -85 c-3 -10 -5 -2 -5 17 0 19 2 27 5 18 2 -10 2 -26 0 -35z
m-6290 -265 c-3 -8 -6 -5 -6 6 -1 11 2 17 5 13 3 -3 4 -12 1 -19z m723 -298
c0 -5 -5 -10 -11 -10 -5 0 -7 5 -4 10 3 6 8 10 11 10 2 0 4 -4 4 -10z m25 -20
c3 -5 1 -10 -4 -10 -6 0 -11 5 -11 10 0 6 2 10 4 10 3 0 8 -4 11 -10z m4742
-22 c-3 -8 -6 -5 -6 6 -1 11 2 17 5 13 3 -3 4 -12 1 -19z"/>
<path d="M2200 4596 c0 -2 7 -7 16 -10 8 -3 12 -2 9 4 -6 10 -25 14 -25 6z"/>
<path d="M2299 4529 c14 -6 28 -6 33 -1 5 5 -5 9 -24 10 -31 0 -31 -1 -9 -9z"/>
<path d="M2350 4526 c0 -2 7 -7 16 -10 8 -3 12 -2 9 4 -6 10 -25 14 -25 6z"/>
<path d="M2420 4520 c0 -5 5 -10 10 -10 6 0 10 5 10 10 0 6 -4 10 -10 10 -5 0
-10 -4 -10 -10z"/>
<path d="M2462 3371 c-24 -15 46 -31 136 -31 107 0 104 8 -3 10 -92 2 -127 8
-119 21 6 11 3 11 -14 0z"/>
<path d="M2905 3359 c-4 -6 -5 -12 -2 -15 2 -3 7 2 10 11 7 17 1 20 -8 4z"/>
<path d="M7960 4561 c0 -6 4 -12 8 -15 5 -3 9 1 9 9 0 8 -4 15 -9 15 -4 0 -8
-4 -8 -9z"/>
<path d="M7455 3720 c4 -6 11 -8 16 -5 14 9 11 15 -7 15 -8 0 -12 -5 -9 -10z"/>
<path d="M7410 3570 c0 -5 5 -10 11 -10 5 0 7 5 4 10 -3 6 -8 10 -11 10 -2 0
-4 -4 -4 -10z"/>
<path d="M7920 3550 c-7 -17 -10 -33 -8 -36 3 -3 11 9 17 27 6 18 9 34 7 36
-2 2 -9 -10 -16 -27z"/>
<path d="M7648 3343 c6 -2 18 -2 25 0 6 3 1 5 -13 5 -14 0 -19 -2 -12 -5z"/>
<path d="M4860 5860 c-462 -56 -733 -212 -890 -511 -122 -233 -137 -618 -35
-861 4 -11 3 -18 -4 -18 -6 0 -11 9 -11 19 0 11 -4 22 -9 25 -9 6 -34 98 -34
124 0 17 -26 15 -33 -3 -4 -10 -14 -14 -28 -10 -15 5 -17 4 -7 -3 11 -8 10
-12 -7 -21 -35 -19 -85 -12 -117 15 -16 13 -23 22 -14 19 10 -4 16 0 16 9 0 8
-4 13 -8 10 -5 -3 -13 10 -18 28 -5 18 -10 27 -10 19 -1 -11 -6 -10 -21 4 -20
18 -21 18 -14 -1 4 -10 4 -16 0 -13 -3 3 -16 30 -27 60 l-20 54 6 -90 c10
-146 50 -315 100 -430 122 -275 387 -460 780 -544 173 -36 322 -52 575 -58
921 -23 1434 207 1593 713 31 98 54 220 61 329 l6 80 -23 -60 c-13 -33 -28
-59 -35 -58 -6 2 -9 -3 -6 -11 7 -18 -57 -72 -95 -81 -46 -10 -99 11 -117 47
-12 24 -18 28 -25 17 -5 -8 -9 -25 -9 -39 0 -31 -27 -103 -75 -200 -141 -282
-411 -427 -885 -475 -486 -48 -948 23 -1214 189 -92 57 -216 188 -222 234 -1
11 5 6 19 -13 48 -66 175 -183 239 -219 204 -114 446 -165 825 -173 827 -19
1230 213 1318 761 4 21 6 93 6 160 -1 539 -285 854 -861 956 -100 18 -172 23
-360 25 -129 2 -269 0 -310 -5z m667 -79 c286 -54 484 -155 621 -316 55 -64
126 -207 154 -310 18 -68 22 -107 22 -265 0 -160 -3 -196 -22 -265 -106 -387
-406 -566 -1012 -604 -300 -19 -679 24 -870 99 -203 80 -319 178 -401 342 -55
110 -79 216 -86 378 -20 503 239 826 743 929 172 35 231 40 489 37 205 -3 270
-7 362 -25z"/>
<path d="M4508 5310 c-23 -12 -48 -39 -65 -68 -26 -43 -28 -55 -28 -148 0 -94
2 -104 30 -149 36 -57 83 -85 146 -85 65 0 107 31 144 105 100 201 -55 436
-227 345z m66 -66 c26 -25 20 -72 -9 -86 -37 -17 -75 3 -75 38 0 53 51 82 84
48z"/>
<path d="M5655 5311 c-74 -45 -108 -117 -108 -228 1 -253 289 -309 354 -69 28
103 -20 250 -96 293 -49 28 -109 29 -150 4z m70 -75 c34 -51 -30 -111 -75 -71
-24 22 -26 52 -3 77 23 25 59 23 78 -6z"/>
<path d="M4815 4610 c-17 -19 -18 -26 -7 -66 43 -161 229 -268 407 -235 159
30 284 145 285 264 0 51 -27 64 -101 47 -94 -21 -332 -24 -437 -6 -117 20
-125 20 -147 -4z m446 -171 c27 -12 48 -26 46 -32 -12 -38 -191 -54 -270 -23
-53 20 -52 30 7 57 58 26 153 25 217 -2z"/>
<path d="M3680 4720 c0 -5 5 -10 10 -10 6 0 10 5 10 10 0 6 -4 10 -10 10 -5 0
-10 -4 -10 -10z"/>
<path d="M3378 4553 c6 -2 18 -2 25 0 6 3 1 5 -13 5 -14 0 -19 -2 -12 -5z"/>
<path d="M6795 4580 c-9 -15 40 -30 88 -29 32 2 35 3 12 6 -16 2 -46 6 -65 9
-30 6 -32 8 -15 14 16 7 17 9 3 9 -9 1 -20 -4 -23 -9z"/>
</g>
</svg>
